<mxfile host="app.diagrams.net" agent="Mozilla/5.0 (Windows NT 10.0; Win64; x64) AppleWebKit/537.36 (KHTML, like Gecko) Chrome/139.0.0.0 Safari/537.36 Edg/139.0.0.0" version="28.1.2">
  <diagram name="第 1 页" id="1Mv62QCso5BcBFfEOc5M">
    <mxGraphModel dx="1418" dy="804" grid="1" gridSize="10" guides="1" tooltips="1" connect="1" arrows="1" fold="1" page="1" pageScale="1" pageWidth="827" pageHeight="1169" math="0" shadow="0">
      <root>
        <mxCell id="0" />
        <mxCell id="1" parent="0" />
        <mxCell id="r8SXe_JNjxTmlswBdzUW-10" value="&lt;div style=&quot;text-align: justify;&quot;&gt;&lt;span style=&quot;background-color: transparent; color: light-dark(rgb(0, 0, 0), rgb(255, 255, 255)); line-height: 230%;&quot;&gt;数据来源&lt;/span&gt;&lt;/div&gt;" style="rounded=0;whiteSpace=wrap;html=1;align=center;verticalAlign=top;" vertex="1" parent="1">
          <mxGeometry x="210" y="110" width="560" height="140" as="geometry" />
        </mxCell>
        <mxCell id="r8SXe_JNjxTmlswBdzUW-8" style="edgeStyle=orthogonalEdgeStyle;rounded=0;orthogonalLoop=1;jettySize=auto;html=1;entryX=0.5;entryY=0;entryDx=0;entryDy=0;" edge="1" parent="1" source="r8SXe_JNjxTmlswBdzUW-1" target="r8SXe_JNjxTmlswBdzUW-2">
          <mxGeometry relative="1" as="geometry" />
        </mxCell>
        <mxCell id="r8SXe_JNjxTmlswBdzUW-1" value="IRIS Shadow" style="shape=datastore;whiteSpace=wrap;html=1;" vertex="1" parent="1">
          <mxGeometry x="330" y="160" width="60" height="60" as="geometry" />
        </mxCell>
        <mxCell id="r8SXe_JNjxTmlswBdzUW-20" style="edgeStyle=orthogonalEdgeStyle;rounded=0;orthogonalLoop=1;jettySize=auto;html=1;" edge="1" parent="1" source="r8SXe_JNjxTmlswBdzUW-2" target="r8SXe_JNjxTmlswBdzUW-11">
          <mxGeometry relative="1" as="geometry" />
        </mxCell>
        <mxCell id="r8SXe_JNjxTmlswBdzUW-2" value="Globa Data" style="shape=datastore;whiteSpace=wrap;html=1;dashed=1;" vertex="1" parent="1">
          <mxGeometry x="440" y="277" width="60" height="60" as="geometry" />
        </mxCell>
        <mxCell id="r8SXe_JNjxTmlswBdzUW-7" style="edgeStyle=orthogonalEdgeStyle;rounded=0;orthogonalLoop=1;jettySize=auto;html=1;" edge="1" parent="1" source="r8SXe_JNjxTmlswBdzUW-5" target="r8SXe_JNjxTmlswBdzUW-2">
          <mxGeometry relative="1" as="geometry" />
        </mxCell>
        <mxCell id="r8SXe_JNjxTmlswBdzUW-9" value="Global Mapping" style="edgeLabel;html=1;align=center;verticalAlign=middle;resizable=0;points=[];" vertex="1" connectable="0" parent="r8SXe_JNjxTmlswBdzUW-7">
          <mxGeometry x="0.3294" relative="1" as="geometry">
            <mxPoint as="offset" />
          </mxGeometry>
        </mxCell>
        <mxCell id="r8SXe_JNjxTmlswBdzUW-5" value="LIS Shadow" style="shape=datastore;whiteSpace=wrap;html=1;" vertex="1" parent="1">
          <mxGeometry x="540" y="160" width="60" height="60" as="geometry" />
        </mxCell>
        <mxCell id="r8SXe_JNjxTmlswBdzUW-11" value="ETL流程 " style="swimlane;startSize=20;horizontal=1;childLayout=flowLayout;flowOrientation=north;resizable=0;interRankCellSpacing=50;containerType=tree;fontSize=12;" vertex="1" parent="1">
          <mxGeometry x="335" y="369" width="270" height="297" as="geometry" />
        </mxCell>
        <mxCell id="r8SXe_JNjxTmlswBdzUW-12" value="&lt;span style=&quot;color: rgb(51, 51, 51); font-family: &amp;quot;PingFang SC&amp;quot;, Arial, sans-serif; font-size: 13px; text-align: start; background-color: rgb(255, 255, 255);&quot;&gt;Extract&lt;/span&gt;" style="whiteSpace=wrap;html=1;" vertex="1" parent="r8SXe_JNjxTmlswBdzUW-11">
          <mxGeometry x="85" y="40" width="100" height="40" as="geometry" />
        </mxCell>
        <mxCell id="r8SXe_JNjxTmlswBdzUW-13" value="&lt;span style=&quot;color: rgb(51, 51, 51); font-family: &amp;quot;PingFang SC&amp;quot;, Arial, sans-serif; font-size: 13px; text-align: start; background-color: rgb(255, 255, 255);&quot;&gt;Transform1&lt;/span&gt;" style="whiteSpace=wrap;html=1;" vertex="1" parent="r8SXe_JNjxTmlswBdzUW-11">
          <mxGeometry x="20" y="139" width="100" height="40" as="geometry" />
        </mxCell>
        <mxCell id="r8SXe_JNjxTmlswBdzUW-14" value="" style="html=1;rounded=1;curved=0;sourcePerimeterSpacing=0;targetPerimeterSpacing=0;startSize=6;endSize=6;noEdgeStyle=1;orthogonal=1;" edge="1" parent="r8SXe_JNjxTmlswBdzUW-11" source="r8SXe_JNjxTmlswBdzUW-12" target="r8SXe_JNjxTmlswBdzUW-13">
          <mxGeometry relative="1" as="geometry">
            <Array as="points">
              <mxPoint x="112.5" y="92" />
              <mxPoint x="70" y="118" />
            </Array>
          </mxGeometry>
        </mxCell>
        <mxCell id="r8SXe_JNjxTmlswBdzUW-15" value="&lt;span style=&quot;color: rgb(51, 51, 51); font-family: &amp;quot;PingFang SC&amp;quot;, Arial, sans-serif; font-size: 13px; text-align: start; background-color: rgb(255, 255, 255);&quot;&gt;Transform2&lt;/span&gt;" style="whiteSpace=wrap;html=1;" vertex="1" parent="r8SXe_JNjxTmlswBdzUW-11">
          <mxGeometry x="150" y="139" width="100" height="40" as="geometry" />
        </mxCell>
        <mxCell id="r8SXe_JNjxTmlswBdzUW-16" value="" style="html=1;rounded=1;curved=0;sourcePerimeterSpacing=0;targetPerimeterSpacing=0;startSize=6;endSize=6;noEdgeStyle=1;orthogonal=1;" edge="1" parent="r8SXe_JNjxTmlswBdzUW-11" source="r8SXe_JNjxTmlswBdzUW-12" target="r8SXe_JNjxTmlswBdzUW-15">
          <mxGeometry relative="1" as="geometry">
            <Array as="points">
              <mxPoint x="157.5" y="92" />
              <mxPoint x="200" y="118" />
            </Array>
          </mxGeometry>
        </mxCell>
        <mxCell id="r8SXe_JNjxTmlswBdzUW-17" value="Load" style="whiteSpace=wrap;html=1;" vertex="1" parent="r8SXe_JNjxTmlswBdzUW-11">
          <mxGeometry x="85" y="237" width="100" height="40" as="geometry" />
        </mxCell>
        <mxCell id="r8SXe_JNjxTmlswBdzUW-18" value="" style="html=1;rounded=1;curved=0;sourcePerimeterSpacing=0;targetPerimeterSpacing=0;startSize=6;endSize=6;noEdgeStyle=1;orthogonal=1;" edge="1" parent="r8SXe_JNjxTmlswBdzUW-11" source="r8SXe_JNjxTmlswBdzUW-13" target="r8SXe_JNjxTmlswBdzUW-17">
          <mxGeometry relative="1" as="geometry">
            <Array as="points">
              <mxPoint x="70" y="191" />
              <mxPoint x="112.5" y="217" />
            </Array>
          </mxGeometry>
        </mxCell>
        <mxCell id="r8SXe_JNjxTmlswBdzUW-19" value="" style="html=1;rounded=1;curved=0;sourcePerimeterSpacing=0;targetPerimeterSpacing=0;startSize=6;endSize=6;noEdgeStyle=1;orthogonal=1;" edge="1" parent="r8SXe_JNjxTmlswBdzUW-11" source="r8SXe_JNjxTmlswBdzUW-15" target="r8SXe_JNjxTmlswBdzUW-17">
          <mxGeometry relative="1" as="geometry">
            <Array as="points">
              <mxPoint x="200" y="191" />
              <mxPoint x="157.5" y="217" />
            </Array>
          </mxGeometry>
        </mxCell>
        <mxCell id="r8SXe_JNjxTmlswBdzUW-35" style="edgeStyle=orthogonalEdgeStyle;rounded=0;orthogonalLoop=1;jettySize=auto;html=1;" edge="1" parent="1" source="r8SXe_JNjxTmlswBdzUW-27" target="r8SXe_JNjxTmlswBdzUW-34">
          <mxGeometry relative="1" as="geometry" />
        </mxCell>
        <mxCell id="r8SXe_JNjxTmlswBdzUW-37" style="edgeStyle=orthogonalEdgeStyle;rounded=0;orthogonalLoop=1;jettySize=auto;html=1;" edge="1" parent="1" source="r8SXe_JNjxTmlswBdzUW-27" target="r8SXe_JNjxTmlswBdzUW-34">
          <mxGeometry relative="1" as="geometry" />
        </mxCell>
        <mxCell id="r8SXe_JNjxTmlswBdzUW-38" style="edgeStyle=orthogonalEdgeStyle;rounded=0;orthogonalLoop=1;jettySize=auto;html=1;" edge="1" parent="1" source="r8SXe_JNjxTmlswBdzUW-27" target="r8SXe_JNjxTmlswBdzUW-34">
          <mxGeometry relative="1" as="geometry" />
        </mxCell>
        <mxCell id="r8SXe_JNjxTmlswBdzUW-27" value="Database Cube Model" style="sketch=0;shadow=0;dashed=0;html=1;strokeColor=none;fillColor=#505050;labelPosition=center;verticalLabelPosition=bottom;verticalAlign=top;outlineConnect=0;align=center;shape=mxgraph.office.databases.database_cube;" vertex="1" parent="1">
          <mxGeometry x="446.5" y="853" width="47" height="52" as="geometry" />
        </mxCell>
        <mxCell id="r8SXe_JNjxTmlswBdzUW-30" style="edgeStyle=orthogonalEdgeStyle;rounded=0;orthogonalLoop=1;jettySize=auto;html=1;" edge="1" parent="1" source="r8SXe_JNjxTmlswBdzUW-28" target="r8SXe_JNjxTmlswBdzUW-27">
          <mxGeometry relative="1" as="geometry" />
        </mxCell>
        <mxCell id="r8SXe_JNjxTmlswBdzUW-31" value="Build" style="edgeLabel;html=1;align=center;verticalAlign=middle;resizable=0;points=[];" vertex="1" connectable="0" parent="r8SXe_JNjxTmlswBdzUW-30">
          <mxGeometry x="-0.0458" relative="1" as="geometry">
            <mxPoint as="offset" />
          </mxGeometry>
        </mxCell>
        <mxCell id="r8SXe_JNjxTmlswBdzUW-36" style="edgeStyle=orthogonalEdgeStyle;rounded=0;orthogonalLoop=1;jettySize=auto;html=1;" edge="1" parent="1" source="r8SXe_JNjxTmlswBdzUW-28" target="r8SXe_JNjxTmlswBdzUW-34">
          <mxGeometry relative="1" as="geometry" />
        </mxCell>
        <mxCell id="r8SXe_JNjxTmlswBdzUW-28" value="FactTable" style="sketch=0;outlineConnect=0;fontColor=#232F3E;gradientColor=none;fillColor=#232F3D;strokeColor=none;dashed=0;verticalLabelPosition=bottom;verticalAlign=top;align=center;html=1;fontSize=12;fontStyle=0;aspect=fixed;pointerEvents=1;shape=mxgraph.aws4.data_table;" vertex="1" parent="1">
          <mxGeometry x="423.73" y="699" width="92.54" height="70" as="geometry" />
        </mxCell>
        <mxCell id="r8SXe_JNjxTmlswBdzUW-29" style="edgeStyle=orthogonalEdgeStyle;rounded=0;orthogonalLoop=1;jettySize=auto;html=1;" edge="1" parent="1" source="r8SXe_JNjxTmlswBdzUW-17" target="r8SXe_JNjxTmlswBdzUW-28">
          <mxGeometry relative="1" as="geometry" />
        </mxCell>
        <mxCell id="r8SXe_JNjxTmlswBdzUW-34" value="HQL Data Service" style="sketch=0;outlineConnect=0;fontColor=#232F3E;gradientColor=none;fillColor=#999999;strokeColor=none;dashed=0;verticalLabelPosition=bottom;verticalAlign=top;align=center;html=1;fontSize=12;fontStyle=0;aspect=fixed;pointerEvents=1;shape=mxgraph.aws4.redshift_query_editor_v20_light;fillStyle=auto;" vertex="1" parent="1">
          <mxGeometry x="620" y="840" width="78" height="78" as="geometry" />
        </mxCell>
      </root>
    </mxGraphModel>
  </diagram>
</mxfile>
